# xmcd
#
# Track frame offsets: 
#        150
#        12097
#        24930
#        37972
#        51097
#        60725
#        74122
#        83485
#        94275
#        105322
#        116932
#        125780
#
# Disc length: 1868 seconds
#
# Revision: 2
# Processed by: cddbd v1.5.2PL0 Copyright (c) Steve Scherf et al.
# Submitted via: ExactAudioCopyFreeDBPlugin 1.0
#
DISCID=9d074a0c
DTITLE=Coeur De Pirate - Coeur De Pirate
DYEAR=2008
DGENRE=Francais
TTITLE0=Le long du large
TTITLE1=Comme des enfants
TTITLE2=Fondu au noir
TTITLE3=Corbeau
TTITLE4=Berceuse
TTITLE5=Intermission
TTITLE6=Printemps
TTITLE7=Ensemble
TTITLE8=La vie est ailleurs
TTITLE9=Pour un infidèle (avec Jimmy Hunt)
TTITLE10=Francis
TTITLE11=C'était salement romantique
EXTD=
EXTT0=
EXTT1=
EXTT2=
EXTT3=
EXTT4=
EXTT5=
EXTT6=
EXTT7=
EXTT8=
EXTT9=
EXTT10=
EXTT11=
PLAYORDER=
